<svg width="40" height="36" viewBox="0 0 40 36" fill="none" xmlns="http://www.w3.org/2000/svg">
<mask id="path-1-outside-1_121_12" maskUnits="userSpaceOnUse" x="-2" y="-2" width="44" height="40" fill="black">
<rect fill="white" x="-2" y="-2" width="44" height="40"/>
<path d="M32.5 0.5C36.6406 0.5 40 3.85938 40 8V28C40 32.2188 36.6406 35.5 32.5 35.5H27.5C26.0938 35.5 25 34.4062 25 33C25 31.6719 26.0938 30.5 27.5 30.5H32.5C33.8281 30.5 35 29.4062 35 28V8C35 6.67188 33.8281 5.5 32.5 5.5H27.5C26.0938 5.5 25 4.40625 25 3C25 1.67188 26.0938 0.5 27.5 0.5H32.5ZM26.7188 16.2812C27.7344 17.2188 27.7344 18.8594 26.7188 19.7969L16.7188 29.7969C15.7812 30.8125 14.1406 30.8125 13.2031 29.7969C12.1875 28.8594 12.1875 27.2188 13.2031 26.2812L18.9062 20.5H2.5C1.09375 20.5 0 19.4062 0 18C0 16.6719 1.09375 15.5 2.5 15.5H18.9062L13.2031 9.79688C12.1875 8.85938 12.1875 7.21875 13.2031 6.28125C14.1406 5.26562 15.7812 5.26562 16.7188 6.28125L26.7188 16.2812Z"/>
</mask>
<path d="M26.7188 16.2812L25.3045 17.6955L25.3328 17.7237L25.3622 17.7509L26.7188 16.2812ZM26.7188 19.7969L25.3622 18.3273L25.3328 18.3544L25.3045 18.3827L26.7188 19.7969ZM16.7188 29.7969L15.3045 28.3827L15.2763 28.4109L15.2491 28.4403L16.7188 29.7969ZM13.2031 29.7969L14.6727 28.4403L14.6185 28.3815L14.5597 28.3273L13.2031 29.7969ZM13.2031 26.2812L14.5597 27.7509L14.5941 27.7191L14.6269 27.6858L13.2031 26.2812ZM18.9062 20.5L20.3301 21.9046L23.6886 18.5H18.9062V20.5ZM18.9062 15.5V17.5H23.7347L20.3205 14.0858L18.9062 15.5ZM13.2031 9.79688L14.6173 8.38266L14.5891 8.35439L14.5597 8.32727L13.2031 9.79688ZM13.2031 6.28125L14.5597 7.75086L14.6185 7.69659L14.6727 7.63781L13.2031 6.28125ZM16.7188 6.28125L15.2491 7.63781L15.2763 7.66719L15.3045 7.69546L16.7188 6.28125ZM32.5 2.5C35.5361 2.5 38 4.96394 38 8H42C42 2.75481 37.7452 -1.5 32.5 -1.5V2.5ZM38 8V28H42V8H38ZM38 28C38 31.1006 35.5497 33.5 32.5 33.5V37.5C37.7316 37.5 42 33.3369 42 28H38ZM32.5 33.5H27.5V37.5H32.5V33.5ZM27.5 33.5C27.3283 33.5 27.2117 33.438 27.1369 33.3631C27.062 33.2882 27 33.1717 27 33H23C23 35.5108 24.9892 37.5 27.5 37.5V33.5ZM27 33C27 32.8876 27.048 32.7571 27.152 32.6509C27.25 32.5507 27.3695 32.5 27.5 32.5V28.5C24.9489 28.5 23 30.6081 23 33H27ZM27.5 32.5H32.5V28.5H27.5V32.5ZM32.5 32.5C34.8919 32.5 37 30.5512 37 28H33C33 28.1305 32.9493 28.25 32.8491 28.348C32.7429 28.452 32.6124 28.5 32.5 28.5V32.5ZM37 28V8H33V28H37ZM37 8C37 5.56731 34.9327 3.5 32.5 3.5V7.5C32.5716 7.5 32.7037 7.53598 32.8338 7.66617C32.964 7.79635 33 7.92841 33 8H37ZM32.5 3.5H27.5V7.5H32.5V3.5ZM27.5 3.5C27.3283 3.5 27.2117 3.43801 27.1369 3.36313C27.062 3.28825 27 3.17166 27 3H23C23 5.51082 24.9892 7.5 27.5 7.5V3.5ZM27 3C27 2.88764 27.048 2.75714 27.152 2.65088C27.25 2.55072 27.3695 2.5 27.5 2.5V-1.5C24.9489 -1.5 23 0.608072 23 3H27ZM27.5 2.5H32.5V-1.5H27.5V2.5ZM25.3622 17.7509C25.433 17.8163 25.4805 17.9152 25.4805 18.0391C25.4805 18.1629 25.433 18.2619 25.3622 18.3273L28.0753 21.2665C29.9489 19.5371 29.9489 16.5411 28.0753 14.8116L25.3622 17.7509ZM25.3045 18.3827L15.3045 28.3827L18.133 31.2111L28.133 21.2111L25.3045 18.3827ZM15.2491 28.4403C15.1837 28.5112 15.0848 28.5586 14.9609 28.5586C14.8371 28.5586 14.7381 28.5112 14.6727 28.4403L11.7335 31.1534C13.4629 33.027 16.4589 33.027 18.1884 31.1534L15.2491 28.4403ZM14.5597 28.3273C14.4888 28.2619 14.4414 28.1629 14.4414 28.0391C14.4414 27.9152 14.4888 27.8163 14.5597 27.7509L11.8466 24.8116C9.97302 26.5411 9.97302 29.5371 11.8466 31.2665L14.5597 28.3273ZM14.6269 27.6858L20.3301 21.9046L17.4824 19.0954L11.7793 24.8767L14.6269 27.6858ZM18.9062 18.5H2.5V22.5H18.9062V18.5ZM2.5 18.5C2.32834 18.5 2.21175 18.438 2.13687 18.3631C2.06199 18.2883 2 18.1717 2 18H-2C-2 20.5108 -0.0108195 22.5 2.5 22.5V18.5ZM2 18C2 17.8876 2.048 17.7571 2.15199 17.6509C2.25002 17.5507 2.36955 17.5 2.5 17.5V13.5C-0.0511501 13.5 -2 15.6081 -2 18H2ZM2.5 17.5H18.9062V13.5H2.5V17.5ZM20.3205 14.0858L14.6173 8.38266L11.7889 11.2111L17.492 16.9142L20.3205 14.0858ZM14.5597 8.32727C14.4888 8.26187 14.4414 8.16294 14.4414 8.03906C14.4414 7.91518 14.4888 7.81626 14.5597 7.75086L11.8466 4.81164C9.97302 6.54107 9.97302 9.53706 11.8466 11.2665L14.5597 8.32727ZM14.6727 7.63781C14.7381 7.56696 14.8371 7.51953 14.9609 7.51953C15.0848 7.51953 15.1837 7.56696 15.2491 7.63781L18.1884 4.92469C16.4589 3.05115 13.4629 3.05115 11.7335 4.92469L14.6727 7.63781ZM15.3045 7.69546L25.3045 17.6955L28.133 14.867L18.133 4.86704L15.3045 7.69546Z" fill="#FCFCFC" mask="url(#path-1-outside-1_121_12)"/>
</svg>
