<svg width="818" height="722" viewBox="0 0 818 722" fill="none" xmlns="http://www.w3.org/2000/svg">
<path d="M1033.05 646.338C899.389 444.409 637.832 188.273 791.645 -29.6483C945.457 -247.57 732.683 -694.215 590.721 -789.196" stroke="black"/>
<ellipse cx="815.95" cy="-72.2814" rx="43.3997" ry="61.4573" transform="rotate(-139.258 815.95 -72.2814)" fill="url(#paint0_linear_44_1601)" fill-opacity="0.5"/>
<ellipse cx="813.117" cy="-66.2222" rx="43.3997" ry="61.4573" transform="rotate(-139.258 813.117 -66.2222)" fill="url(#paint1_linear_44_1601)" fill-opacity="0.5"/>
<ellipse cx="810.118" cy="-60.1998" rx="43.3997" ry="61.4573" transform="rotate(-139.258 810.118 -60.1998)" fill="url(#paint2_linear_44_1601)" fill-opacity="0.5"/>
<ellipse cx="806.949" cy="-54.2229" rx="43.3997" ry="61.4573" transform="rotate(-139.258 806.949 -54.2229)" fill="url(#paint3_linear_44_1601)" fill-opacity="0.5"/>
<ellipse cx="803.608" cy="-48.2999" rx="43.3997" ry="61.4573" transform="rotate(-139.258 803.608 -48.2999)" fill="url(#paint4_linear_44_1601)" fill-opacity="0.5"/>
<ellipse cx="800.097" cy="-42.4404" rx="43.3997" ry="61.4573" transform="rotate(-139.258 800.097 -42.4404)" fill="url(#paint5_linear_44_1601)" fill-opacity="0.5"/>
<ellipse cx="796.413" cy="-36.6541" rx="43.3997" ry="61.4573" transform="rotate(-139.258 796.413 -36.6541)" fill="url(#paint6_linear_44_1601)" fill-opacity="0.5"/>
<ellipse cx="792.557" cy="-30.9495" rx="43.3997" ry="61.4573" transform="rotate(-139.258 792.557 -30.9495)" fill="url(#paint7_linear_44_1601)" fill-opacity="0.5"/>
<ellipse cx="788.623" cy="-25.2833" rx="43.3997" ry="61.4573" transform="rotate(-139.258 788.623 -25.2833)" fill="url(#paint8_linear_44_1601)" fill-opacity="0.5"/>
<ellipse cx="784.83" cy="-19.5494" rx="43.3997" ry="61.4573" transform="rotate(-139.258 784.83 -19.5494)" fill="url(#paint9_linear_44_1601)" fill-opacity="0.5"/>
<ellipse cx="781.189" cy="-13.7438" rx="43.3997" ry="61.4573" transform="rotate(-139.258 781.189 -13.7438)" fill="url(#paint10_linear_44_1601)" fill-opacity="0.5"/>
<ellipse cx="777.708" cy="-7.87216" rx="43.3997" ry="61.4573" transform="rotate(-139.258 777.708 -7.87216)" fill="url(#paint11_linear_44_1601)" fill-opacity="0.5"/>
<ellipse cx="774.393" cy="-1.94092" rx="43.3997" ry="61.4573" transform="rotate(-139.258 774.393 -1.94092)" fill="url(#paint12_linear_44_1601)" fill-opacity="0.5"/>
<ellipse cx="771.248" cy="4.04303" rx="43.3997" ry="61.4573" transform="rotate(-139.258 771.248 4.04303)" fill="url(#paint13_linear_44_1601)" fill-opacity="0.5"/>
<ellipse cx="768.279" cy="10.0725" rx="43.3997" ry="61.4573" transform="rotate(-139.258 768.279 10.0725)" fill="url(#paint14_linear_44_1601)" fill-opacity="0.5"/>
<ellipse cx="765.487" cy="16.1402" rx="43.3997" ry="61.4573" transform="rotate(-139.258 765.487 16.1402)" fill="url(#paint15_linear_44_1601)" fill-opacity="0.5"/>
<ellipse cx="762.877" cy="22.2382" rx="43.3997" ry="61.4573" transform="rotate(-139.258 762.877 22.2382)" fill="url(#paint16_linear_44_1601)" fill-opacity="0.5"/>
<ellipse cx="760.451" cy="28.3592" rx="43.3997" ry="61.4573" transform="rotate(-139.258 760.451 28.3592)" fill="url(#paint17_linear_44_1601)" fill-opacity="0.5"/>
<ellipse cx="758.207" cy="34.4955" rx="43.3997" ry="61.4573" transform="rotate(-139.258 758.207 34.4955)" fill="url(#paint18_linear_44_1601)" fill-opacity="0.5"/>
<ellipse cx="756.147" cy="40.6399" rx="43.3997" ry="61.4573" transform="rotate(-139.258 756.147 40.6399)" fill="url(#paint19_linear_44_1601)" fill-opacity="0.5"/>
<ellipse cx="754.269" cy="46.7857" rx="43.3997" ry="61.4573" transform="rotate(-139.258 754.269 46.7857)" fill="url(#paint20_linear_44_1601)" fill-opacity="0.5"/>
<ellipse cx="752.572" cy="52.926" rx="43.3997" ry="61.4573" transform="rotate(-139.258 752.572 52.926)" fill="url(#paint21_linear_44_1601)" fill-opacity="0.5"/>
<ellipse cx="751.052" cy="59.0547" rx="43.3997" ry="61.4573" transform="rotate(-139.258 751.052 59.0547)" fill="url(#paint22_linear_44_1601)" fill-opacity="0.5"/>
<ellipse cx="749.706" cy="65.1665" rx="43.3997" ry="61.4573" transform="rotate(-139.258 749.706 65.1665)" fill="url(#paint23_linear_44_1601)" fill-opacity="0.5"/>
<ellipse cx="748.53" cy="71.2564" rx="43.3997" ry="61.4573" transform="rotate(-139.258 748.53 71.2564)" fill="url(#paint24_linear_44_1601)" fill-opacity="0.5"/>
<ellipse cx="747.519" cy="77.3201" rx="43.3997" ry="61.4573" transform="rotate(-139.258 747.519 77.3201)" fill="url(#paint25_linear_44_1601)" fill-opacity="0.5"/>
<ellipse cx="746.67" cy="83.3531" rx="43.3997" ry="61.4573" transform="rotate(-139.258 746.67 83.3531)" fill="url(#paint26_linear_44_1601)" fill-opacity="0.5"/>
<ellipse cx="745.976" cy="89.3524" rx="43.3997" ry="61.4573" transform="rotate(-139.258 745.976 89.3524)" fill="url(#paint27_linear_44_1601)" fill-opacity="0.5"/>
<ellipse cx="745.433" cy="95.3154" rx="43.3997" ry="61.4573" transform="rotate(-139.258 745.433 95.3154)" fill="url(#paint28_linear_44_1601)" fill-opacity="0.5"/>
<ellipse cx="745.035" cy="101.24" rx="43.3997" ry="61.4573" transform="rotate(-139.258 745.035 101.24)" fill="url(#paint29_linear_44_1601)" fill-opacity="0.5"/>
<ellipse cx="744.776" cy="107.123" rx="43.3997" ry="61.4573" transform="rotate(-139.258 744.776 107.123)" fill="url(#paint30_linear_44_1601)" fill-opacity="0.5"/>
<ellipse cx="744.651" cy="112.963" rx="43.3997" ry="61.4573" transform="rotate(-139.258 744.651 112.963)" fill="url(#paint31_linear_44_1601)" fill-opacity="0.5"/>
<ellipse cx="744.656" cy="118.761" rx="43.3997" ry="61.4573" transform="rotate(-139.258 744.656 118.761)" fill="url(#paint32_linear_44_1601)" fill-opacity="0.5"/>
<ellipse cx="744.784" cy="124.514" rx="43.3997" ry="61.4573" transform="rotate(-139.258 744.784 124.514)" fill="url(#paint33_linear_44_1601)" fill-opacity="0.5"/>
<ellipse cx="745.03" cy="130.222" rx="43.3997" ry="61.4573" transform="rotate(-139.258 745.03 130.222)" fill="url(#paint34_linear_44_1601)" fill-opacity="0.5"/>
<ellipse cx="745.389" cy="135.885" rx="43.3997" ry="61.4573" transform="rotate(-139.258 745.389 135.885)" fill="url(#paint35_linear_44_1601)" fill-opacity="0.5"/>
<ellipse cx="745.857" cy="141.502" rx="43.3997" ry="61.4573" transform="rotate(-139.258 745.857 141.502)" fill="url(#paint36_linear_44_1601)" fill-opacity="0.5"/>
<ellipse cx="746.429" cy="147.074" rx="43.3997" ry="61.4573" transform="rotate(-139.258 746.429 147.074)" fill="url(#paint37_linear_44_1601)" fill-opacity="0.5"/>
<ellipse cx="747.099" cy="152.602" rx="43.3997" ry="61.4573" transform="rotate(-139.258 747.099 152.602)" fill="url(#paint38_linear_44_1601)" fill-opacity="0.5"/>
<ellipse cx="747.864" cy="158.084" rx="43.3997" ry="61.4573" transform="rotate(-139.258 747.864 158.084)" fill="url(#paint39_linear_44_1601)" fill-opacity="0.5"/>
<ellipse cx="748.72" cy="163.523" rx="43.3997" ry="61.4573" transform="rotate(-139.258 748.72 163.523)" fill="url(#paint40_linear_44_1601)" fill-opacity="0.5"/>
<ellipse cx="749.663" cy="168.918" rx="43.3997" ry="61.4573" transform="rotate(-139.258 749.663 168.918)" fill="url(#paint41_linear_44_1601)" fill-opacity="0.5"/>
<ellipse cx="750.688" cy="174.27" rx="43.3997" ry="61.4573" transform="rotate(-139.258 750.688 174.27)" fill="url(#paint42_linear_44_1601)" fill-opacity="0.5"/>
<ellipse cx="751.793" cy="179.58" rx="43.3997" ry="61.4573" transform="rotate(-139.258 751.793 179.58)" fill="url(#paint43_linear_44_1601)" fill-opacity="0.5"/>
<ellipse cx="752.974" cy="184.848" rx="43.3997" ry="61.4573" transform="rotate(-139.258 752.974 184.848)" fill="url(#paint44_linear_44_1601)" fill-opacity="0.5"/>
<ellipse cx="754.227" cy="190.076" rx="43.3997" ry="61.4573" transform="rotate(-139.258 754.227 190.076)" fill="url(#paint45_linear_44_1601)" fill-opacity="0.5"/>
<ellipse cx="755.55" cy="195.264" rx="43.3997" ry="61.4573" transform="rotate(-139.258 755.55 195.264)" fill="url(#paint46_linear_44_1601)" fill-opacity="0.5"/>
<ellipse cx="756.939" cy="200.414" rx="43.3997" ry="61.4573" transform="rotate(-139.258 756.939 200.414)" fill="url(#paint47_linear_44_1601)" fill-opacity="0.5"/>
<ellipse cx="758.393" cy="205.525" rx="43.3997" ry="61.4573" transform="rotate(-139.258 758.393 205.525)" fill="url(#paint48_linear_44_1601)" fill-opacity="0.5"/>
<ellipse cx="759.907" cy="210.599" rx="43.3997" ry="61.4573" transform="rotate(-139.258 759.907 210.599)" fill="url(#paint49_linear_44_1601)" fill-opacity="0.5"/>
<ellipse cx="761.479" cy="215.637" rx="43.3997" ry="61.4573" transform="rotate(-139.258 761.479 215.637)" fill="url(#paint50_linear_44_1601)" fill-opacity="0.5"/>
<ellipse cx="763.108" cy="220.64" rx="43.3997" ry="61.4573" transform="rotate(-139.258 763.108 220.64)" fill="url(#paint51_linear_44_1601)" fill-opacity="0.5"/>
<ellipse cx="764.791" cy="225.608" rx="43.3997" ry="61.4573" transform="rotate(-139.258 764.791 225.608)" fill="url(#paint52_linear_44_1601)" fill-opacity="0.5"/>
<ellipse cx="766.525" cy="230.542" rx="43.3997" ry="61.4573" transform="rotate(-139.258 766.525 230.542)" fill="url(#paint53_linear_44_1601)" fill-opacity="0.5"/>
<ellipse cx="768.31" cy="235.444" rx="43.3997" ry="61.4573" transform="rotate(-139.258 768.31 235.444)" fill="url(#paint54_linear_44_1601)" fill-opacity="0.5"/>
<ellipse cx="770.141" cy="240.314" rx="43.3997" ry="61.4573" transform="rotate(-139.258 770.141 240.314)" fill="url(#paint55_linear_44_1601)" fill-opacity="0.5"/>
<ellipse cx="772.018" cy="245.152" rx="43.3997" ry="61.4573" transform="rotate(-139.258 772.018 245.152)" fill="url(#paint56_linear_44_1601)" fill-opacity="0.5"/>
<ellipse cx="773.94" cy="249.961" rx="43.3997" ry="61.4573" transform="rotate(-139.258 773.94 249.961)" fill="url(#paint57_linear_44_1601)" fill-opacity="0.5"/>
<ellipse cx="775.904" cy="254.739" rx="43.3997" ry="61.4573" transform="rotate(-139.258 775.904 254.739)" fill="url(#paint58_linear_44_1601)" fill-opacity="0.5"/>
<ellipse cx="777.908" cy="259.49" rx="43.3997" ry="61.4573" transform="rotate(-139.258 777.908 259.49)" fill="url(#paint59_linear_44_1601)" fill-opacity="0.5"/>
<ellipse cx="779.952" cy="264.212" rx="43.3997" ry="61.4573" transform="rotate(-139.258 779.952 264.212)" fill="url(#paint60_linear_44_1601)" fill-opacity="0.5"/>
<ellipse cx="782.033" cy="268.907" rx="43.3997" ry="61.4573" transform="rotate(-139.258 782.033 268.907)" fill="url(#paint61_linear_44_1601)" fill-opacity="0.5"/>
<ellipse cx="784.15" cy="273.575" rx="43.3997" ry="61.4573" transform="rotate(-139.258 784.15 273.575)" fill="url(#paint62_linear_44_1601)" fill-opacity="0.5"/>
<ellipse cx="786.303" cy="278.218" rx="43.3997" ry="61.4573" transform="rotate(-139.258 786.303 278.218)" fill="url(#paint63_linear_44_1601)" fill-opacity="0.5"/>
<ellipse cx="788.489" cy="282.836" rx="43.3997" ry="61.4573" transform="rotate(-139.258 788.489 282.836)" fill="url(#paint64_linear_44_1601)" fill-opacity="0.5"/>
<ellipse cx="790.708" cy="287.429" rx="43.3997" ry="61.4573" transform="rotate(-139.258 790.708 287.429)" fill="url(#paint65_linear_44_1601)" fill-opacity="0.5"/>
<ellipse cx="792.957" cy="291.999" rx="43.3997" ry="61.4573" transform="rotate(-139.258 792.957 291.999)" fill="url(#paint66_linear_44_1601)" fill-opacity="0.5"/>
<ellipse cx="795.238" cy="296.546" rx="43.3997" ry="61.4573" transform="rotate(-139.258 795.238 296.546)" fill="url(#paint67_linear_44_1601)" fill-opacity="0.5"/>
<ellipse cx="797.546" cy="301.07" rx="43.3997" ry="61.4573" transform="rotate(-139.258 797.546 301.07)" fill="url(#paint68_linear_44_1601)" fill-opacity="0.5"/>
<ellipse cx="799.884" cy="305.573" rx="43.3997" ry="61.4573" transform="rotate(-139.258 799.884 305.573)" fill="url(#paint69_linear_44_1601)" fill-opacity="0.5"/>
<ellipse cx="802.247" cy="310.054" rx="43.3997" ry="61.4573" transform="rotate(-139.258 802.247 310.054)" fill="url(#paint70_linear_44_1601)" fill-opacity="0.5"/>
<ellipse cx="804.638" cy="314.515" rx="43.3997" ry="61.4573" transform="rotate(-139.258 804.638 314.515)" fill="url(#paint71_linear_44_1601)" fill-opacity="0.5"/>
<ellipse cx="807.053" cy="318.956" rx="43.3997" ry="61.4573" transform="rotate(-139.258 807.053 318.956)" fill="url(#paint72_linear_44_1601)" fill-opacity="0.5"/>
<ellipse cx="809.493" cy="323.377" rx="43.3997" ry="61.4573" transform="rotate(-139.258 809.493 323.377)" fill="url(#paint73_linear_44_1601)" fill-opacity="0.5"/>
<ellipse cx="811.956" cy="327.78" rx="43.3997" ry="61.4573" transform="rotate(-139.258 811.956 327.78)" fill="url(#paint74_linear_44_1601)" fill-opacity="0.5"/>
<ellipse cx="814.441" cy="332.164" rx="43.3997" ry="61.4573" transform="rotate(-139.258 814.441 332.164)" fill="url(#paint75_linear_44_1601)" fill-opacity="0.5"/>
<ellipse cx="816.949" cy="336.53" rx="43.3997" ry="61.4573" transform="rotate(-139.258 816.949 336.53)" fill="url(#paint76_linear_44_1601)" fill-opacity="0.5"/>
<ellipse cx="819.478" cy="340.879" rx="43.3997" ry="61.4573" transform="rotate(-139.258 819.478 340.879)" fill="url(#paint77_linear_44_1601)" fill-opacity="0.5"/>
<ellipse cx="822.027" cy="345.211" rx="43.3997" ry="61.4573" transform="rotate(-139.258 822.027 345.211)" fill="url(#paint78_linear_44_1601)" fill-opacity="0.5"/>
<ellipse cx="824.596" cy="349.527" rx="43.3997" ry="61.4573" transform="rotate(-139.258 824.596 349.527)" fill="url(#paint79_linear_44_1601)" fill-opacity="0.5"/>
<ellipse cx="827.184" cy="353.827" rx="43.3997" ry="61.4573" transform="rotate(-139.258 827.184 353.827)" fill="url(#paint80_linear_44_1601)" fill-opacity="0.5"/>
<ellipse cx="829.789" cy="358.111" rx="43.3997" ry="61.4573" transform="rotate(-139.258 829.789 358.111)" fill="url(#paint81_linear_44_1601)" fill-opacity="0.5"/>
<ellipse cx="832.414" cy="362.381" rx="43.3997" ry="61.4573" transform="rotate(-139.258 832.414 362.381)" fill="url(#paint82_linear_44_1601)" fill-opacity="0.5"/>
<ellipse cx="835.055" cy="366.636" rx="43.3997" ry="61.4573" transform="rotate(-139.258 835.055 366.636)" fill="url(#paint83_linear_44_1601)" fill-opacity="0.5"/>
<ellipse cx="837.712" cy="370.877" rx="43.3997" ry="61.4573" transform="rotate(-139.258 837.712 370.877)" fill="url(#paint84_linear_44_1601)" fill-opacity="0.5"/>
<ellipse cx="840.385" cy="375.104" rx="43.3997" ry="61.4573" transform="rotate(-139.258 840.385 375.104)" fill="url(#paint85_linear_44_1601)" fill-opacity="0.5"/>
<ellipse cx="843.074" cy="379.318" rx="43.3997" ry="61.4573" transform="rotate(-139.258 843.074 379.318)" fill="url(#paint86_linear_44_1601)" fill-opacity="0.5"/>
<ellipse cx="845.777" cy="383.52" rx="43.3997" ry="61.4573" transform="rotate(-139.258 845.777 383.52)" fill="url(#paint87_linear_44_1601)" fill-opacity="0.5"/>
<ellipse cx="848.495" cy="387.709" rx="43.3997" ry="61.4573" transform="rotate(-139.258 848.495 387.709)" fill="url(#paint88_linear_44_1601)" fill-opacity="0.5"/>
<ellipse cx="851.227" cy="391.886" rx="43.3997" ry="61.4573" transform="rotate(-139.258 851.227 391.886)" fill="url(#paint89_linear_44_1601)" fill-opacity="0.5"/>
<ellipse cx="853.971" cy="396.052" rx="43.3997" ry="61.4573" transform="rotate(-139.258 853.971 396.052)" fill="url(#paint90_linear_44_1601)" fill-opacity="0.5"/>
<ellipse cx="856.728" cy="400.206" rx="43.3997" ry="61.4573" transform="rotate(-139.258 856.728 400.206)" fill="url(#paint91_linear_44_1601)" fill-opacity="0.5"/>
<ellipse cx="859.498" cy="404.35" rx="43.3997" ry="61.4573" transform="rotate(-139.258 859.498 404.35)" fill="url(#paint92_linear_44_1601)" fill-opacity="0.5"/>
<ellipse cx="862.28" cy="408.483" rx="43.3997" ry="61.4573" transform="rotate(-139.258 862.28 408.483)" fill="url(#paint93_linear_44_1601)" fill-opacity="0.5"/>
<ellipse cx="865.073" cy="412.606" rx="43.3997" ry="61.4573" transform="rotate(-139.258 865.073 412.606)" fill="url(#paint94_linear_44_1601)" fill-opacity="0.5"/>
<ellipse cx="867.876" cy="416.719" rx="43.3997" ry="61.4573" transform="rotate(-139.258 867.876 416.719)" fill="url(#paint95_linear_44_1601)" fill-opacity="0.5"/>
<ellipse cx="870.691" cy="420.823" rx="43.3997" ry="61.4573" transform="rotate(-139.258 870.691 420.823)" fill="url(#paint96_linear_44_1601)" fill-opacity="0.5"/>
<ellipse cx="873.516" cy="424.918" rx="43.3997" ry="61.4573" transform="rotate(-139.258 873.516 424.918)" fill="url(#paint97_linear_44_1601)" fill-opacity="0.5"/>
<ellipse cx="876.349" cy="429.005" rx="43.3997" ry="61.4573" transform="rotate(-139.258 876.349 429.005)" fill="url(#paint98_linear_44_1601)" fill-opacity="0.5"/>
<ellipse cx="879.193" cy="433.083" rx="43.3997" ry="61.4573" transform="rotate(-139.258 879.193 433.083)" fill="url(#paint99_linear_44_1601)" fill-opacity="0.5"/>
<ellipse cx="882.044" cy="437.153" rx="43.3997" ry="61.4573" transform="rotate(-139.258 882.044 437.153)" fill="url(#paint100_linear_44_1601)" fill-opacity="0.5"/>
<ellipse cx="884.905" cy="441.216" rx="43.3997" ry="61.4573" transform="rotate(-139.258 884.905 441.216)" fill="url(#paint101_linear_44_1601)" fill-opacity="0.5"/>
<ellipse cx="887.774" cy="445.271" rx="43.3997" ry="61.4573" transform="rotate(-139.258 887.774 445.271)" fill="url(#paint102_linear_44_1601)" fill-opacity="0.5"/>
<ellipse cx="890.65" cy="449.32" rx="43.3997" ry="61.4573" transform="rotate(-139.258 890.65 449.32)" fill="url(#paint103_linear_44_1601)" fill-opacity="0.5"/>
<defs>
<linearGradient id="paint0_linear_44_1601" x1="815.95" y1="-133.739" x2="815.95" y2="-10.8241" gradientUnits="userSpaceOnUse">
<stop stop-color="#6851E8"/>
<stop offset="1" stop-color="#2E133A"/>
</linearGradient>
<linearGradient id="paint1_linear_44_1601" x1="813.117" y1="-127.68" x2="813.117" y2="-4.76494" gradientUnits="userSpaceOnUse">
<stop stop-color="#6851E8"/>
<stop offset="1" stop-color="#2E133A"/>
</linearGradient>
<linearGradient id="paint2_linear_44_1601" x1="810.118" y1="-121.657" x2="810.118" y2="1.25746" gradientUnits="userSpaceOnUse">
<stop stop-color="#6851E8"/>
<stop offset="1" stop-color="#2E133A"/>
</linearGradient>
<linearGradient id="paint3_linear_44_1601" x1="806.949" y1="-115.68" x2="806.949" y2="7.23442" gradientUnits="userSpaceOnUse">
<stop stop-color="#6851E8"/>
<stop offset="1" stop-color="#2E133A"/>
</linearGradient>
<linearGradient id="paint4_linear_44_1601" x1="803.608" y1="-109.757" x2="803.608" y2="13.1574" gradientUnits="userSpaceOnUse">
<stop stop-color="#6851E8"/>
<stop offset="1" stop-color="#2E133A"/>
</linearGradient>
<linearGradient id="paint5_linear_44_1601" x1="800.097" y1="-103.898" x2="800.097" y2="19.0169" gradientUnits="userSpaceOnUse">
<stop stop-color="#6851E8"/>
<stop offset="1" stop-color="#2E133A"/>
</linearGradient>
<linearGradient id="paint6_linear_44_1601" x1="796.413" y1="-98.1114" x2="796.413" y2="24.8032" gradientUnits="userSpaceOnUse">
<stop stop-color="#6851E8"/>
<stop offset="1" stop-color="#2E133A"/>
</linearGradient>
<linearGradient id="paint7_linear_44_1601" x1="792.557" y1="-92.4068" x2="792.557" y2="30.5078" gradientUnits="userSpaceOnUse">
<stop stop-color="#6851E8"/>
<stop offset="1" stop-color="#2E133A"/>
</linearGradient>
<linearGradient id="paint8_linear_44_1601" x1="788.623" y1="-86.7406" x2="788.623" y2="36.174" gradientUnits="userSpaceOnUse">
<stop stop-color="#6851E8"/>
<stop offset="1" stop-color="#2E133A"/>
</linearGradient>
<linearGradient id="paint9_linear_44_1601" x1="784.83" y1="-81.0066" x2="784.83" y2="41.9079" gradientUnits="userSpaceOnUse">
<stop stop-color="#6851E8"/>
<stop offset="1" stop-color="#2E133A"/>
</linearGradient>
<linearGradient id="paint10_linear_44_1601" x1="781.189" y1="-75.2011" x2="781.189" y2="47.7135" gradientUnits="userSpaceOnUse">
<stop stop-color="#6851E8"/>
<stop offset="1" stop-color="#2E133A"/>
</linearGradient>
<linearGradient id="paint11_linear_44_1601" x1="777.708" y1="-69.3295" x2="777.708" y2="53.5851" gradientUnits="userSpaceOnUse">
<stop stop-color="#6851E8"/>
<stop offset="1" stop-color="#2E133A"/>
</linearGradient>
<linearGradient id="paint12_linear_44_1601" x1="774.393" y1="-63.3982" x2="774.393" y2="59.5164" gradientUnits="userSpaceOnUse">
<stop stop-color="#6851E8"/>
<stop offset="1" stop-color="#2E133A"/>
</linearGradient>
<linearGradient id="paint13_linear_44_1601" x1="771.248" y1="-57.4143" x2="771.248" y2="65.5003" gradientUnits="userSpaceOnUse">
<stop stop-color="#6851E8"/>
<stop offset="1" stop-color="#2E133A"/>
</linearGradient>
<linearGradient id="paint14_linear_44_1601" x1="768.279" y1="-51.3848" x2="768.279" y2="71.5298" gradientUnits="userSpaceOnUse">
<stop stop-color="#6851E8"/>
<stop offset="1" stop-color="#2E133A"/>
</linearGradient>
<linearGradient id="paint15_linear_44_1601" x1="765.487" y1="-45.3171" x2="765.487" y2="77.5975" gradientUnits="userSpaceOnUse">
<stop stop-color="#6851E8"/>
<stop offset="1" stop-color="#2E133A"/>
</linearGradient>
<linearGradient id="paint16_linear_44_1601" x1="762.877" y1="-39.2191" x2="762.877" y2="83.6954" gradientUnits="userSpaceOnUse">
<stop stop-color="#6851E8"/>
<stop offset="1" stop-color="#2E133A"/>
</linearGradient>
<linearGradient id="paint17_linear_44_1601" x1="760.451" y1="-33.0981" x2="760.451" y2="89.8165" gradientUnits="userSpaceOnUse">
<stop stop-color="#6851E8"/>
<stop offset="1" stop-color="#2E133A"/>
</linearGradient>
<linearGradient id="paint18_linear_44_1601" x1="758.207" y1="-26.9617" x2="758.207" y2="95.9528" gradientUnits="userSpaceOnUse">
<stop stop-color="#6851E8"/>
<stop offset="1" stop-color="#2E133A"/>
</linearGradient>
<linearGradient id="paint19_linear_44_1601" x1="756.147" y1="-20.8173" x2="756.147" y2="102.097" gradientUnits="userSpaceOnUse">
<stop stop-color="#6851E8"/>
<stop offset="1" stop-color="#2E133A"/>
</linearGradient>
<linearGradient id="paint20_linear_44_1601" x1="754.269" y1="-14.6716" x2="754.269" y2="108.243" gradientUnits="userSpaceOnUse">
<stop stop-color="#6851E8"/>
<stop offset="1" stop-color="#2E133A"/>
</linearGradient>
<linearGradient id="paint21_linear_44_1601" x1="752.572" y1="-8.53127" x2="752.572" y2="114.383" gradientUnits="userSpaceOnUse">
<stop stop-color="#6851E8"/>
<stop offset="1" stop-color="#2E133A"/>
</linearGradient>
<linearGradient id="paint22_linear_44_1601" x1="751.052" y1="-2.40261" x2="751.052" y2="120.512" gradientUnits="userSpaceOnUse">
<stop stop-color="#6851E8"/>
<stop offset="1" stop-color="#2E133A"/>
</linearGradient>
<linearGradient id="paint23_linear_44_1601" x1="749.706" y1="3.70921" x2="749.706" y2="126.624" gradientUnits="userSpaceOnUse">
<stop stop-color="#6851E8"/>
<stop offset="1" stop-color="#2E133A"/>
</linearGradient>
<linearGradient id="paint24_linear_44_1601" x1="748.53" y1="9.79915" x2="748.53" y2="132.714" gradientUnits="userSpaceOnUse">
<stop stop-color="#6851E8"/>
<stop offset="1" stop-color="#2E133A"/>
</linearGradient>
<linearGradient id="paint25_linear_44_1601" x1="747.519" y1="15.8628" x2="747.519" y2="138.777" gradientUnits="userSpaceOnUse">
<stop stop-color="#6851E8"/>
<stop offset="1" stop-color="#2E133A"/>
</linearGradient>
<linearGradient id="paint26_linear_44_1601" x1="746.67" y1="21.8958" x2="746.67" y2="144.81" gradientUnits="userSpaceOnUse">
<stop stop-color="#6851E8"/>
<stop offset="1" stop-color="#2E133A"/>
</linearGradient>
<linearGradient id="paint27_linear_44_1601" x1="745.976" y1="27.8951" x2="745.976" y2="150.81" gradientUnits="userSpaceOnUse">
<stop stop-color="#6851E8"/>
<stop offset="1" stop-color="#2E133A"/>
</linearGradient>
<linearGradient id="paint28_linear_44_1601" x1="745.433" y1="33.8581" x2="745.433" y2="156.773" gradientUnits="userSpaceOnUse">
<stop stop-color="#6851E8"/>
<stop offset="1" stop-color="#2E133A"/>
</linearGradient>
<linearGradient id="paint29_linear_44_1601" x1="745.035" y1="39.7822" x2="745.035" y2="162.697" gradientUnits="userSpaceOnUse">
<stop stop-color="#6851E8"/>
<stop offset="1" stop-color="#2E133A"/>
</linearGradient>
<linearGradient id="paint30_linear_44_1601" x1="744.776" y1="45.6654" x2="744.776" y2="168.58" gradientUnits="userSpaceOnUse">
<stop stop-color="#6851E8"/>
<stop offset="1" stop-color="#2E133A"/>
</linearGradient>
<linearGradient id="paint31_linear_44_1601" x1="744.651" y1="51.5062" x2="744.651" y2="174.421" gradientUnits="userSpaceOnUse">
<stop stop-color="#6851E8"/>
<stop offset="1" stop-color="#2E133A"/>
</linearGradient>
<linearGradient id="paint32_linear_44_1601" x1="744.656" y1="57.3036" x2="744.656" y2="180.218" gradientUnits="userSpaceOnUse">
<stop stop-color="#6851E8"/>
<stop offset="1" stop-color="#2E133A"/>
</linearGradient>
<linearGradient id="paint33_linear_44_1601" x1="744.784" y1="63.0566" x2="744.784" y2="185.971" gradientUnits="userSpaceOnUse">
<stop stop-color="#6851E8"/>
<stop offset="1" stop-color="#2E133A"/>
</linearGradient>
<linearGradient id="paint34_linear_44_1601" x1="745.03" y1="68.7648" x2="745.03" y2="191.679" gradientUnits="userSpaceOnUse">
<stop stop-color="#6851E8"/>
<stop offset="1" stop-color="#2E133A"/>
</linearGradient>
<linearGradient id="paint35_linear_44_1601" x1="745.389" y1="74.4274" x2="745.389" y2="197.342" gradientUnits="userSpaceOnUse">
<stop stop-color="#6851E8"/>
<stop offset="1" stop-color="#2E133A"/>
</linearGradient>
<linearGradient id="paint36_linear_44_1601" x1="745.857" y1="80.0449" x2="745.857" y2="202.959" gradientUnits="userSpaceOnUse">
<stop stop-color="#6851E8"/>
<stop offset="1" stop-color="#2E133A"/>
</linearGradient>
<linearGradient id="paint37_linear_44_1601" x1="746.429" y1="85.6171" x2="746.429" y2="208.532" gradientUnits="userSpaceOnUse">
<stop stop-color="#6851E8"/>
<stop offset="1" stop-color="#2E133A"/>
</linearGradient>
<linearGradient id="paint38_linear_44_1601" x1="747.099" y1="91.1443" x2="747.099" y2="214.059" gradientUnits="userSpaceOnUse">
<stop stop-color="#6851E8"/>
<stop offset="1" stop-color="#2E133A"/>
</linearGradient>
<linearGradient id="paint39_linear_44_1601" x1="747.864" y1="96.627" x2="747.864" y2="219.542" gradientUnits="userSpaceOnUse">
<stop stop-color="#6851E8"/>
<stop offset="1" stop-color="#2E133A"/>
</linearGradient>
<linearGradient id="paint40_linear_44_1601" x1="748.72" y1="102.065" x2="748.72" y2="224.98" gradientUnits="userSpaceOnUse">
<stop stop-color="#6851E8"/>
<stop offset="1" stop-color="#2E133A"/>
</linearGradient>
<linearGradient id="paint41_linear_44_1601" x1="749.663" y1="107.46" x2="749.663" y2="230.375" gradientUnits="userSpaceOnUse">
<stop stop-color="#6851E8"/>
<stop offset="1" stop-color="#2E133A"/>
</linearGradient>
<linearGradient id="paint42_linear_44_1601" x1="750.688" y1="112.812" x2="750.688" y2="235.727" gradientUnits="userSpaceOnUse">
<stop stop-color="#6851E8"/>
<stop offset="1" stop-color="#2E133A"/>
</linearGradient>
<linearGradient id="paint43_linear_44_1601" x1="751.793" y1="118.122" x2="751.793" y2="241.037" gradientUnits="userSpaceOnUse">
<stop stop-color="#6851E8"/>
<stop offset="1" stop-color="#2E133A"/>
</linearGradient>
<linearGradient id="paint44_linear_44_1601" x1="752.974" y1="123.391" x2="752.974" y2="246.305" gradientUnits="userSpaceOnUse">
<stop stop-color="#6851E8"/>
<stop offset="1" stop-color="#2E133A"/>
</linearGradient>
<linearGradient id="paint45_linear_44_1601" x1="754.227" y1="128.619" x2="754.227" y2="251.533" gradientUnits="userSpaceOnUse">
<stop stop-color="#6851E8"/>
<stop offset="1" stop-color="#2E133A"/>
</linearGradient>
<linearGradient id="paint46_linear_44_1601" x1="755.55" y1="133.807" x2="755.55" y2="256.722" gradientUnits="userSpaceOnUse">
<stop stop-color="#6851E8"/>
<stop offset="1" stop-color="#2E133A"/>
</linearGradient>
<linearGradient id="paint47_linear_44_1601" x1="756.939" y1="138.956" x2="756.939" y2="261.871" gradientUnits="userSpaceOnUse">
<stop stop-color="#6851E8"/>
<stop offset="1" stop-color="#2E133A"/>
</linearGradient>
<linearGradient id="paint48_linear_44_1601" x1="758.393" y1="144.068" x2="758.393" y2="266.982" gradientUnits="userSpaceOnUse">
<stop stop-color="#6851E8"/>
<stop offset="1" stop-color="#2E133A"/>
</linearGradient>
<linearGradient id="paint49_linear_44_1601" x1="759.907" y1="149.142" x2="759.907" y2="272.057" gradientUnits="userSpaceOnUse">
<stop stop-color="#6851E8"/>
<stop offset="1" stop-color="#2E133A"/>
</linearGradient>
<linearGradient id="paint50_linear_44_1601" x1="761.479" y1="154.18" x2="761.479" y2="277.094" gradientUnits="userSpaceOnUse">
<stop stop-color="#6851E8"/>
<stop offset="1" stop-color="#2E133A"/>
</linearGradient>
<linearGradient id="paint51_linear_44_1601" x1="763.108" y1="159.183" x2="763.108" y2="282.097" gradientUnits="userSpaceOnUse">
<stop stop-color="#6851E8"/>
<stop offset="1" stop-color="#2E133A"/>
</linearGradient>
<linearGradient id="paint52_linear_44_1601" x1="764.791" y1="164.151" x2="764.791" y2="287.065" gradientUnits="userSpaceOnUse">
<stop stop-color="#6851E8"/>
<stop offset="1" stop-color="#2E133A"/>
</linearGradient>
<linearGradient id="paint53_linear_44_1601" x1="766.525" y1="169.085" x2="766.525" y2="291.999" gradientUnits="userSpaceOnUse">
<stop stop-color="#6851E8"/>
<stop offset="1" stop-color="#2E133A"/>
</linearGradient>
<linearGradient id="paint54_linear_44_1601" x1="768.31" y1="173.987" x2="768.31" y2="296.901" gradientUnits="userSpaceOnUse">
<stop stop-color="#6851E8"/>
<stop offset="1" stop-color="#2E133A"/>
</linearGradient>
<linearGradient id="paint55_linear_44_1601" x1="770.141" y1="178.856" x2="770.141" y2="301.771" gradientUnits="userSpaceOnUse">
<stop stop-color="#6851E8"/>
<stop offset="1" stop-color="#2E133A"/>
</linearGradient>
<linearGradient id="paint56_linear_44_1601" x1="772.019" y1="183.695" x2="772.019" y2="306.61" gradientUnits="userSpaceOnUse">
<stop stop-color="#6851E8"/>
<stop offset="1" stop-color="#2E133A"/>
</linearGradient>
<linearGradient id="paint57_linear_44_1601" x1="773.94" y1="188.503" x2="773.94" y2="311.418" gradientUnits="userSpaceOnUse">
<stop stop-color="#6851E8"/>
<stop offset="1" stop-color="#2E133A"/>
</linearGradient>
<linearGradient id="paint58_linear_44_1601" x1="775.904" y1="193.282" x2="775.904" y2="316.197" gradientUnits="userSpaceOnUse">
<stop stop-color="#6851E8"/>
<stop offset="1" stop-color="#2E133A"/>
</linearGradient>
<linearGradient id="paint59_linear_44_1601" x1="777.908" y1="198.032" x2="777.908" y2="320.947" gradientUnits="userSpaceOnUse">
<stop stop-color="#6851E8"/>
<stop offset="1" stop-color="#2E133A"/>
</linearGradient>
<linearGradient id="paint60_linear_44_1601" x1="779.952" y1="202.754" x2="779.952" y2="325.669" gradientUnits="userSpaceOnUse">
<stop stop-color="#6851E8"/>
<stop offset="1" stop-color="#2E133A"/>
</linearGradient>
<linearGradient id="paint61_linear_44_1601" x1="782.033" y1="207.45" x2="782.033" y2="330.364" gradientUnits="userSpaceOnUse">
<stop stop-color="#6851E8"/>
<stop offset="1" stop-color="#2E133A"/>
</linearGradient>
<linearGradient id="paint62_linear_44_1601" x1="784.15" y1="212.118" x2="784.15" y2="335.033" gradientUnits="userSpaceOnUse">
<stop stop-color="#6851E8"/>
<stop offset="1" stop-color="#2E133A"/>
</linearGradient>
<linearGradient id="paint63_linear_44_1601" x1="786.303" y1="216.761" x2="786.303" y2="339.676" gradientUnits="userSpaceOnUse">
<stop stop-color="#6851E8"/>
<stop offset="1" stop-color="#2E133A"/>
</linearGradient>
<linearGradient id="paint64_linear_44_1601" x1="788.489" y1="221.379" x2="788.489" y2="344.293" gradientUnits="userSpaceOnUse">
<stop stop-color="#6851E8"/>
<stop offset="1" stop-color="#2E133A"/>
</linearGradient>
<linearGradient id="paint65_linear_44_1601" x1="790.708" y1="225.972" x2="790.708" y2="348.887" gradientUnits="userSpaceOnUse">
<stop stop-color="#6851E8"/>
<stop offset="1" stop-color="#2E133A"/>
</linearGradient>
<linearGradient id="paint66_linear_44_1601" x1="792.957" y1="230.542" x2="792.957" y2="353.456" gradientUnits="userSpaceOnUse">
<stop stop-color="#6851E8"/>
<stop offset="1" stop-color="#2E133A"/>
</linearGradient>
<linearGradient id="paint67_linear_44_1601" x1="795.238" y1="235.089" x2="795.238" y2="358.003" gradientUnits="userSpaceOnUse">
<stop stop-color="#6851E8"/>
<stop offset="1" stop-color="#2E133A"/>
</linearGradient>
<linearGradient id="paint68_linear_44_1601" x1="797.546" y1="239.613" x2="797.546" y2="362.528" gradientUnits="userSpaceOnUse">
<stop stop-color="#6851E8"/>
<stop offset="1" stop-color="#2E133A"/>
</linearGradient>
<linearGradient id="paint69_linear_44_1601" x1="799.884" y1="244.115" x2="799.884" y2="367.03" gradientUnits="userSpaceOnUse">
<stop stop-color="#6851E8"/>
<stop offset="1" stop-color="#2E133A"/>
</linearGradient>
<linearGradient id="paint70_linear_44_1601" x1="802.248" y1="248.597" x2="802.248" y2="371.512" gradientUnits="userSpaceOnUse">
<stop stop-color="#6851E8"/>
<stop offset="1" stop-color="#2E133A"/>
</linearGradient>
<linearGradient id="paint71_linear_44_1601" x1="804.638" y1="253.058" x2="804.638" y2="375.972" gradientUnits="userSpaceOnUse">
<stop stop-color="#6851E8"/>
<stop offset="1" stop-color="#2E133A"/>
</linearGradient>
<linearGradient id="paint72_linear_44_1601" x1="807.053" y1="257.499" x2="807.053" y2="380.413" gradientUnits="userSpaceOnUse">
<stop stop-color="#6851E8"/>
<stop offset="1" stop-color="#2E133A"/>
</linearGradient>
<linearGradient id="paint73_linear_44_1601" x1="809.493" y1="261.92" x2="809.493" y2="384.834" gradientUnits="userSpaceOnUse">
<stop stop-color="#6851E8"/>
<stop offset="1" stop-color="#2E133A"/>
</linearGradient>
<linearGradient id="paint74_linear_44_1601" x1="811.956" y1="266.322" x2="811.956" y2="389.237" gradientUnits="userSpaceOnUse">
<stop stop-color="#6851E8"/>
<stop offset="1" stop-color="#2E133A"/>
</linearGradient>
<linearGradient id="paint75_linear_44_1601" x1="814.441" y1="270.706" x2="814.441" y2="393.621" gradientUnits="userSpaceOnUse">
<stop stop-color="#6851E8"/>
<stop offset="1" stop-color="#2E133A"/>
</linearGradient>
<linearGradient id="paint76_linear_44_1601" x1="816.949" y1="275.073" x2="816.949" y2="397.987" gradientUnits="userSpaceOnUse">
<stop stop-color="#6851E8"/>
<stop offset="1" stop-color="#2E133A"/>
</linearGradient>
<linearGradient id="paint77_linear_44_1601" x1="819.478" y1="279.422" x2="819.478" y2="402.336" gradientUnits="userSpaceOnUse">
<stop stop-color="#6851E8"/>
<stop offset="1" stop-color="#2E133A"/>
</linearGradient>
<linearGradient id="paint78_linear_44_1601" x1="822.027" y1="283.754" x2="822.027" y2="406.668" gradientUnits="userSpaceOnUse">
<stop stop-color="#6851E8"/>
<stop offset="1" stop-color="#2E133A"/>
</linearGradient>
<linearGradient id="paint79_linear_44_1601" x1="824.596" y1="288.069" x2="824.596" y2="410.984" gradientUnits="userSpaceOnUse">
<stop stop-color="#6851E8"/>
<stop offset="1" stop-color="#2E133A"/>
</linearGradient>
<linearGradient id="paint80_linear_44_1601" x1="827.184" y1="292.369" x2="827.184" y2="415.284" gradientUnits="userSpaceOnUse">
<stop stop-color="#6851E8"/>
<stop offset="1" stop-color="#2E133A"/>
</linearGradient>
<linearGradient id="paint81_linear_44_1601" x1="829.789" y1="296.654" x2="829.789" y2="419.568" gradientUnits="userSpaceOnUse">
<stop stop-color="#6851E8"/>
<stop offset="1" stop-color="#2E133A"/>
</linearGradient>
<linearGradient id="paint82_linear_44_1601" x1="832.414" y1="300.923" x2="832.414" y2="423.838" gradientUnits="userSpaceOnUse">
<stop stop-color="#6851E8"/>
<stop offset="1" stop-color="#2E133A"/>
</linearGradient>
<linearGradient id="paint83_linear_44_1601" x1="835.055" y1="305.178" x2="835.055" y2="428.093" gradientUnits="userSpaceOnUse">
<stop stop-color="#6851E8"/>
<stop offset="1" stop-color="#2E133A"/>
</linearGradient>
<linearGradient id="paint84_linear_44_1601" x1="837.712" y1="309.419" x2="837.712" y2="432.334" gradientUnits="userSpaceOnUse">
<stop stop-color="#6851E8"/>
<stop offset="1" stop-color="#2E133A"/>
</linearGradient>
<linearGradient id="paint85_linear_44_1601" x1="840.385" y1="313.647" x2="840.385" y2="436.561" gradientUnits="userSpaceOnUse">
<stop stop-color="#6851E8"/>
<stop offset="1" stop-color="#2E133A"/>
</linearGradient>
<linearGradient id="paint86_linear_44_1601" x1="843.074" y1="317.861" x2="843.074" y2="440.776" gradientUnits="userSpaceOnUse">
<stop stop-color="#6851E8"/>
<stop offset="1" stop-color="#2E133A"/>
</linearGradient>
<linearGradient id="paint87_linear_44_1601" x1="845.777" y1="322.063" x2="845.777" y2="444.977" gradientUnits="userSpaceOnUse">
<stop stop-color="#6851E8"/>
<stop offset="1" stop-color="#2E133A"/>
</linearGradient>
<linearGradient id="paint88_linear_44_1601" x1="848.495" y1="326.252" x2="848.495" y2="449.166" gradientUnits="userSpaceOnUse">
<stop stop-color="#6851E8"/>
<stop offset="1" stop-color="#2E133A"/>
</linearGradient>
<linearGradient id="paint89_linear_44_1601" x1="851.227" y1="330.429" x2="851.227" y2="453.343" gradientUnits="userSpaceOnUse">
<stop stop-color="#6851E8"/>
<stop offset="1" stop-color="#2E133A"/>
</linearGradient>
<linearGradient id="paint90_linear_44_1601" x1="853.971" y1="334.594" x2="853.971" y2="457.509" gradientUnits="userSpaceOnUse">
<stop stop-color="#6851E8"/>
<stop offset="1" stop-color="#2E133A"/>
</linearGradient>
<linearGradient id="paint91_linear_44_1601" x1="856.728" y1="338.749" x2="856.728" y2="461.663" gradientUnits="userSpaceOnUse">
<stop stop-color="#6851E8"/>
<stop offset="1" stop-color="#2E133A"/>
</linearGradient>
<linearGradient id="paint92_linear_44_1601" x1="859.498" y1="342.892" x2="859.498" y2="465.807" gradientUnits="userSpaceOnUse">
<stop stop-color="#6851E8"/>
<stop offset="1" stop-color="#2E133A"/>
</linearGradient>
<linearGradient id="paint93_linear_44_1601" x1="862.28" y1="347.026" x2="862.28" y2="469.94" gradientUnits="userSpaceOnUse">
<stop stop-color="#6851E8"/>
<stop offset="1" stop-color="#2E133A"/>
</linearGradient>
<linearGradient id="paint94_linear_44_1601" x1="865.073" y1="351.149" x2="865.073" y2="474.063" gradientUnits="userSpaceOnUse">
<stop stop-color="#6851E8"/>
<stop offset="1" stop-color="#2E133A"/>
</linearGradient>
<linearGradient id="paint95_linear_44_1601" x1="867.876" y1="355.262" x2="867.876" y2="478.177" gradientUnits="userSpaceOnUse">
<stop stop-color="#6851E8"/>
<stop offset="1" stop-color="#2E133A"/>
</linearGradient>
<linearGradient id="paint96_linear_44_1601" x1="870.691" y1="359.366" x2="870.691" y2="482.281" gradientUnits="userSpaceOnUse">
<stop stop-color="#6851E8"/>
<stop offset="1" stop-color="#2E133A"/>
</linearGradient>
<linearGradient id="paint97_linear_44_1601" x1="873.516" y1="363.461" x2="873.516" y2="486.376" gradientUnits="userSpaceOnUse">
<stop stop-color="#6851E8"/>
<stop offset="1" stop-color="#2E133A"/>
</linearGradient>
<linearGradient id="paint98_linear_44_1601" x1="876.349" y1="367.548" x2="876.349" y2="490.462" gradientUnits="userSpaceOnUse">
<stop stop-color="#6851E8"/>
<stop offset="1" stop-color="#2E133A"/>
</linearGradient>
<linearGradient id="paint99_linear_44_1601" x1="879.193" y1="371.626" x2="879.193" y2="494.54" gradientUnits="userSpaceOnUse">
<stop stop-color="#6851E8"/>
<stop offset="1" stop-color="#2E133A"/>
</linearGradient>
<linearGradient id="paint100_linear_44_1601" x1="882.044" y1="375.696" x2="882.044" y2="498.61" gradientUnits="userSpaceOnUse">
<stop stop-color="#6851E8"/>
<stop offset="1" stop-color="#2E133A"/>
</linearGradient>
<linearGradient id="paint101_linear_44_1601" x1="884.905" y1="379.759" x2="884.905" y2="502.673" gradientUnits="userSpaceOnUse">
<stop stop-color="#6851E8"/>
<stop offset="1" stop-color="#2E133A"/>
</linearGradient>
<linearGradient id="paint102_linear_44_1601" x1="887.774" y1="383.814" x2="887.774" y2="506.728" gradientUnits="userSpaceOnUse">
<stop stop-color="#6851E8"/>
<stop offset="1" stop-color="#2E133A"/>
</linearGradient>
<linearGradient id="paint103_linear_44_1601" x1="890.65" y1="387.862" x2="890.65" y2="510.777" gradientUnits="userSpaceOnUse">
<stop stop-color="#6851E8"/>
<stop offset="1" stop-color="#2E133A"/>
</linearGradient>
</defs>
</svg>
