<svg width="56" height="64" viewBox="0 0 56 64" fill="none" xmlns="http://www.w3.org/2000/svg">
<mask id="path-1-outside-1_311_7" maskUnits="userSpaceOnUse" x="-2" y="-2" width="60" height="68" fill="black">
<rect fill="white" x="-2" y="-2" width="60" height="68"/>
<path d="M10 24V18C10 8.125 18 0 28 0C37.875 0 46 8.125 46 18V24H48C52.375 24 56 27.625 56 32V56C56 60.5 52.375 64 48 64H8C3.5 64 0 60.5 0 56V32C0 27.625 3.5 24 8 24H10ZM18 24H38V18C38 12.5 33.5 8 28 8C22.375 8 18 12.5 18 18V24Z"/>
</mask>
<path d="M10 24V26H12V24H10ZM46 24H44V26H46V24ZM18 24H16V26H18V24ZM38 24V26H40V24H38ZM12 24V18H8V24H12ZM12 18C12 9.22051 19.1136 2 28 2V-2C16.8864 -2 8 7.02949 8 18H12ZM28 2C36.7704 2 44 9.22957 44 18H48C48 7.02043 38.9796 -2 28 -2V2ZM44 18V24H48V18H44ZM46 26H48V22H46V26ZM48 26C51.2704 26 54 28.7296 54 32H58C58 26.5204 53.4796 22 48 22V26ZM54 32V56H58V32H54ZM54 56C54 59.3751 51.2909 62 48 62V66C53.4591 66 58 61.6249 58 56H54ZM48 62H8V66H48V62ZM8 62C4.60457 62 2 59.3954 2 56H-2C-2 61.6046 2.39543 66 8 66V62ZM2 56V32H-2V56H2ZM2 32C2 28.7091 4.6249 26 8 26V22C2.3751 22 -2 26.5409 -2 32H2ZM8 26H10V22H8V26ZM18 26H38V22H18V26ZM40 24V18H36V24H40ZM40 18C40 11.3954 34.6046 6 28 6V10C32.3954 10 36 13.6046 36 18H40ZM28 6C21.2541 6 16 11.4118 16 18H20C20 13.5882 23.4959 10 28 10V6ZM16 18V24H20V18H16Z" fill="#FCFCFC" mask="url(#path-1-outside-1_311_7)"/>
</svg>
