<svg width="56" height="64" viewBox="0 0 56 64" fill="none" xmlns="http://www.w3.org/2000/svg">
<mask id="path-1-outside-1_311_5" maskUnits="userSpaceOnUse" x="-2" y="-2" width="60" height="68" fill="black">
<rect fill="white" x="-2" y="-2" width="60" height="68"/>
<path d="M28 32C19.125 32 12 24.875 12 16C12 7.25 19.125 0 28 0C36.75 0 44 7.25 44 16C44 24.875 36.75 32 28 32ZM34.25 38C46.25 38 56 47.75 56 59.75C56 62.125 54 64 51.625 64H4.25C1.875 64 0 62.125 0 59.75C0 47.75 9.625 38 21.625 38H34.25Z"/>
</mask>
<path d="M28 30C20.2296 30 14 23.7704 14 16H10C10 25.9796 18.0204 34 28 34V30ZM14 16C14 8.34439 20.2397 2 28 2V-2C18.0103 -2 10 6.15561 10 16H14ZM28 2C35.6454 2 42 8.35457 42 16H46C46 6.14543 37.8546 -2 28 -2V2ZM42 16C42 23.7603 35.6556 30 28 30V34C37.8444 34 46 25.9897 46 16H42ZM34.25 40C45.1454 40 54 48.8546 54 59.75H58C58 46.6454 47.3546 36 34.25 36V40ZM54 59.75C54 60.9458 52.9716 62 51.625 62V66C55.0284 66 58 63.3042 58 59.75H54ZM51.625 62H4.25V66H51.625V62ZM4.25 62C2.97957 62 2 61.0204 2 59.75H-2C-2 63.2296 0.770431 66 4.25 66V62ZM2 59.75C2 48.8395 10.7446 40 21.625 40V36C8.50544 36 -2 46.6605 -2 59.75H2ZM21.625 40H34.25V36H21.625V40Z" fill="#FCFCFC" mask="url(#path-1-outside-1_311_5)"/>
</svg>
